<svg width="40" height="40" viewBox="0 0 40 40" fill="none" xmlns="http://www.w3.org/2000/svg">
<g clip-path="url(#clip0_12343_13658)">
<path d="M25.1083 18.6721V38.0894C25.1083 39.1446 24.2529 40.0001 23.1976 40.0001H15.5952C14.54 40.0001 13.6846 39.1446 13.6846 38.0894V18.6721C13.6846 17.9188 13.8439 17.1848 14.1425 16.5119C14.4411 15.8391 14.8797 15.2282 15.4383 14.7236C16.5554 13.7151 17.1928 12.2801 17.1928 10.7751V9.29374L17.3467 8.5277C17.3467 8.36811 17.476 8.23877 17.6356 8.23877H21.3103C21.4699 8.23877 21.5993 8.36811 21.5993 8.5277V10.7751C21.5993 11.5276 21.7586 12.2624 22.058 12.9353C22.3574 13.6081 22.7952 14.219 23.3546 14.7236C24.4709 15.7329 25.1083 17.1671 25.1083 18.6721Z" fill="#FDB441"/>
<path d="M23.3541 14.7236C22.7948 14.219 22.357 13.6081 22.0576 12.9353C21.7582 12.2624 21.5988 11.5276 21.5988 10.7751V8.5277C21.5988 8.36811 21.4695 8.23877 21.3099 8.23877H19.6289C19.7885 8.23877 19.9178 8.36811 19.9178 8.5277V10.7751C19.9178 11.5276 20.0772 12.2624 20.3766 12.9353C20.676 13.6081 21.1138 14.219 21.6732 14.7236C22.7895 15.7329 23.4269 17.1671 23.4269 18.6721V38.0894C23.4269 39.1446 22.5714 40.0001 21.5162 40.0001H23.1972C24.2524 40.0001 25.1079 39.1446 25.1079 38.0894V18.6721C25.1079 17.1671 24.4704 15.7329 23.3541 14.7236Z" fill="#FEA613"/>
<path d="M20.8868 0H17.9051C17.7455 0 17.6162 0.129336 17.6162 0.288934V2.13771L19.4948 2.4338L21.1757 2.13771V0.288934C21.1757 0.129336 21.0464 0 20.8868 0Z" fill="#D8AB8C"/>
<path d="M20.887 0H19.2061C19.3657 0 19.495 0.129336 19.495 0.288934V2.13771H21.176V0.288934C21.176 0.129336 21.0466 0 20.887 0Z" fill="#C38778"/>
<path d="M21.6001 2.42663V8.53279L17.1934 9.29367V2.42663C17.1934 2.26703 17.3227 2.1377 17.4823 2.1377H21.3112C21.4707 2.1377 21.6001 2.26703 21.6001 2.42663Z" fill="#685E68"/>
<path d="M21.3108 2.1377H19.6299C19.7895 2.1377 19.9188 2.26703 19.9188 2.42663V8.82301L21.5998 8.53279V2.42663C21.5998 2.26703 21.4704 2.1377 21.3108 2.1377Z" fill="#554E56"/>
<path d="M19.7482 21.0623V34.2559C19.7482 34.9456 19.1888 35.505 18.4991 35.505H13.6846V19.8132H18.4991C19.1888 19.8132 19.7482 20.3726 19.7482 21.0623Z" fill="#FEE45A"/>
<path d="M18.4993 19.8132H16.8184C17.5081 19.8132 18.0675 20.3726 18.0675 21.0623V34.2559C18.0675 34.9456 17.5081 35.505 16.8184 35.505H18.4993C19.1891 35.505 19.7484 34.9456 19.7484 34.2559V21.0623C19.7484 20.3726 19.1891 19.8132 18.4993 19.8132Z" fill="#FEDF30"/>
<path d="M37.7394 21.2509V38.0894C37.7394 39.1446 36.8839 40.0001 35.8287 40.0001H27.0191C25.9639 40.0001 25.1084 39.1446 25.1084 38.0894V21.2509C25.1084 21.2509 27.5946 19.7568 28.4088 18.0096C29.3408 16.0098 28.6166 6.51894 28.6166 5.71572V3.00184C28.6166 2.52458 29.0035 2.1377 29.4808 2.1377H33.3661C33.8434 2.1377 34.2302 2.52458 34.2302 3.00184V5.71572C34.2302 5.955 33.5597 16.7696 34.0435 17.932C35.0816 20.4259 37.7394 21.2509 37.7394 21.2509Z" fill="#D8AB8C"/>
<path d="M37.7394 20.7722V21.251L32.0311 22.9846C31.6352 23.1048 31.2125 23.1048 30.8166 22.9846L25.1084 21.251V20.7722C25.1084 20.0188 25.2678 19.2848 25.5663 18.612C25.8649 17.9392 26.3036 17.3283 26.8621 16.8237C27.9792 15.8152 28.6166 14.3802 28.6166 12.8752V5.71606H34.2303V12.8752C34.2303 13.6277 34.3897 14.3625 34.6891 15.0353C34.9885 15.7082 35.4263 16.319 35.9857 16.8237C37.102 17.8329 37.7394 19.2671 37.7394 20.7722Z" fill="#ECF4FF"/>
<path d="M32.5497 3.00184V5.71596H34.2307V3.00184C34.2307 2.52458 33.8438 2.1377 33.3665 2.1377H31.6855C32.1628 2.1377 32.5497 2.52458 32.5497 3.00184Z" fill="#C38778"/>
<path d="M36.0591 38.0894C36.0591 39.1447 35.2036 40.0001 34.1484 40.0001H35.8294C36.8846 40.0001 37.7401 39.1447 37.7401 38.0894V21.251L36.0591 21.7615V38.0894Z" fill="#C38778"/>
<path d="M35.9861 16.8237C35.4267 16.319 34.9889 15.7082 34.6895 15.0353C34.3901 14.3625 34.2308 13.6277 34.2308 12.8752V5.71606H32.5498V12.8752C32.5498 13.6277 32.7092 14.3625 33.0086 15.0353C33.308 15.7082 33.7458 16.319 34.3051 16.8237C35.4214 17.8329 36.0589 19.2671 36.0589 20.7722V21.7615L37.7398 21.251V20.7722C37.7398 19.2671 37.1024 17.8329 35.9861 16.8237Z" fill="#DDEAFB"/>
<path d="M31.4241 35.9146C32.8686 35.9146 34.0397 33.7823 34.0397 31.152C34.0397 28.5217 32.8686 26.3894 31.4241 26.3894C29.9796 26.3894 28.8086 28.5217 28.8086 31.152C28.8086 33.7823 29.9796 35.9146 31.4241 35.9146Z" fill="#ECF4FF"/>
<path d="M31.4235 26.3894C31.1293 26.3894 30.8469 26.4791 30.583 26.6421C31.615 27.2797 32.3581 29.0573 32.3581 31.152C32.3581 33.2467 31.615 35.0243 30.583 35.6618C30.8469 35.8249 31.1293 35.9146 31.4235 35.9146C32.868 35.9146 34.039 33.7822 34.039 31.152C34.039 28.5217 32.868 26.3894 31.4235 26.3894Z" fill="#DDEAFB"/>
<path d="M13.6845 14.6019V16.7494L13.2846 24.1758L13.6845 30.4758V38.0894C13.6845 39.1446 12.829 40 11.7738 40H4.17141C3.11619 40 2.26074 39.1446 2.26074 38.0894V33.0729L2.87048 26.3893L2.26074 19.3464V14.6019C2.26074 13.8485 2.4201 13.1145 2.71869 12.4417C3.01728 11.7689 3.45591 11.158 4.01446 10.6534C5.13157 9.64493 5.76899 8.20992 5.76899 6.70489V0.735711C5.76899 0.576113 5.89833 0.446777 6.05792 0.446777H9.8865C10.0461 0.446777 10.1754 0.576113 10.1754 0.735711V6.70489C10.1754 7.4574 10.3348 8.19221 10.6342 8.86505C10.9336 9.53788 11.3714 10.1487 11.9308 10.6534C13.0471 11.6626 13.6845 13.0968 13.6845 14.6019Z" fill="#02905D"/>
<path d="M11.9303 10.6534C11.371 10.1487 10.9331 9.53788 10.6337 8.86505C10.3343 8.19221 10.175 7.4574 10.175 6.70489V0.735711C10.175 0.576113 10.0456 0.446777 9.88604 0.446777H8.20508C8.36468 0.446777 8.49401 0.576113 8.49401 0.735711V6.70489C8.49401 7.4574 8.65337 8.19221 8.95276 8.86505C9.25216 9.53788 9.68999 10.1487 10.2493 10.6534C11.3656 11.6626 12.0031 13.0968 12.0031 14.6019V38.0894C12.0031 39.1446 11.1476 40 10.0924 40H11.7734C12.8286 40 13.684 39.1446 13.684 38.0894V30.4758L13.2841 24.1758L13.684 16.7494V14.6019C13.684 13.0968 13.0466 11.6626 11.9303 10.6534Z" fill="#017B4E"/>
<path d="M10.0435 5.24816H5.90235C5.18936 5.24816 4.61133 4.67013 4.61133 3.95714V3.83424C4.61133 3.12124 5.18936 2.54321 5.90235 2.54321H10.0436C10.7566 2.54321 11.3346 3.12124 11.3346 3.83424V3.95714C11.3346 4.67013 10.7566 5.24816 10.0435 5.24816Z" fill="#FB5858"/>
<path d="M10.0434 2.54321H8.4873C9.2003 2.54321 9.77833 3.12124 9.77833 3.83432V3.95722C9.77833 4.67022 9.2003 5.24824 8.4873 5.24824H10.0434C10.7564 5.24824 11.3345 4.67022 11.3345 3.95722V3.83432C11.3345 3.12124 10.7565 2.54321 10.0434 2.54321Z" fill="#F44545"/>
<path d="M13.6845 30.4759L2.26074 33.073V19.3465L13.6845 16.7495V30.4759Z" fill="#FB5858"/>
<path d="M12.0039 17.1316V30.8581L13.6849 30.4759V16.7495L12.0039 17.1316Z" fill="#F44545"/>
<path d="M32.7872 19.7546H30.0607C29.7273 19.7546 29.457 19.4843 29.457 19.151C29.457 18.8176 29.7273 18.5474 30.0607 18.5474H32.7872C33.1205 18.5474 33.3908 18.8176 33.3908 19.151C33.3908 19.4843 33.1206 19.7546 32.7872 19.7546Z" fill="#FDB441"/>
<path d="M8.05282 29.7187C6.36252 29.7187 4.9873 28.3436 4.9873 26.6532C4.9873 26.3198 5.25757 26.0496 5.59093 26.0496C5.92429 26.0496 6.19455 26.3198 6.19455 26.6532C6.19455 27.6778 7.02811 28.5115 8.05282 28.5115C9.07753 28.5115 9.91109 27.6779 9.91109 26.6532C9.91109 26.3198 10.1813 26.0496 10.5147 26.0496C10.8481 26.0496 11.1183 26.3198 11.1183 26.6532C11.1183 28.3436 9.74312 29.7187 8.05282 29.7187Z" fill="#ECF4FF"/>
<path d="M10.5147 23.7724C10.1813 23.7724 9.91109 23.5021 9.91109 23.1688C9.91109 22.1442 9.07753 21.3105 8.05282 21.3105C7.02811 21.3105 6.19455 22.1441 6.19455 23.1688C6.19455 23.5021 5.92429 23.7724 5.59093 23.7724C5.25757 23.7724 4.9873 23.5021 4.9873 23.1688C4.9873 21.4785 6.36244 20.1033 8.05282 20.1033C9.7432 20.1033 11.1183 21.4784 11.1183 23.1688C11.1183 23.5021 10.8481 23.7724 10.5147 23.7724Z" fill="#ECF4FF"/>
</g>
<defs>
<clipPath id="clip0_12343_13658">
<rect width="40" height="40" fill="white"/>
</clipPath>
</defs>
</svg>
