<svg width="19" height="23" viewBox="0 0 19 23" fill="none" xmlns="http://www.w3.org/2000/svg">
<path d="M15.079 12.5546C15.1009 10.8526 16.0149 9.24209 17.465 8.35062C16.5502 7.04417 15.018 6.21584 13.4239 6.16597C11.7237 5.98751 10.0754 7.18336 9.20899 7.18336C8.32582 7.18336 6.99185 6.18369 5.55538 6.21324C3.68301 6.27374 1.9375 7.33826 1.02655 8.97521C-0.931623 12.3655 0.528999 17.348 2.40477 20.0885C3.34325 21.4304 4.44007 22.9294 5.87524 22.8762C7.27964 22.818 7.80416 21.9807 9.49938 21.9807C11.1789 21.9807 11.671 22.8762 13.1353 22.8424C14.6423 22.8179 15.5917 21.4945 16.4973 20.1399C17.1716 19.1837 17.6905 18.127 18.0347 17.0087C16.2637 16.2597 15.081 14.4775 15.079 12.5546Z" fill="white"/>
<path d="M12.3131 4.36372C13.1348 3.37733 13.5396 2.1095 13.4416 0.829468C12.1863 0.961316 11.0267 1.56128 10.1939 2.50982C9.37959 3.4366 8.9558 4.68212 9.03592 5.91323C10.2917 5.92616 11.5262 5.34246 12.3131 4.36372Z" fill="white"/>
</svg>
