<svg width="24" height="25" viewBox="0 0 24 25" fill="none" xmlns="http://www.w3.org/2000/svg">
<path fill-rule="evenodd" clip-rule="evenodd" d="M2.5 1.5C1.94772 1.5 1.5 1.94772 1.5 2.5C1.5 3.05228 1.94772 3.5 2.5 3.5C3.22842 3.5 3.86479 4.02928 3.99581 4.774L4.68169 8.67269L4.6823 8.67614L5.12175 11.1321C5.3966 12.6681 5.61607 13.8948 5.89356 14.8692C6.17972 15.8741 6.5506 16.7009 7.18052 17.3996C7.61316 17.8796 8.11937 18.2904 8.68037 18.6183C9.49306 19.0932 10.389 19.3024 11.4541 19.4025C12.4918 19.5 13.778 19.5 15.3983 19.5H15.8909C16.6115 19.5 17.2056 19.5 17.695 19.4644C18.2049 19.4273 18.6689 19.3482 19.1192 19.1563C19.7758 18.8764 20.3509 18.4363 20.7865 17.8748C21.0872 17.4871 21.275 17.0597 21.4289 16.5822C21.5758 16.1266 21.7098 15.565 21.8707 14.8902L21.891 14.8051C22.1357 13.7795 22.3357 12.9415 22.4325 12.2573C22.5321 11.5532 22.543 10.891 22.3163 10.2527C21.9976 9.35541 21.3703 8.59999 20.5496 8.10785C19.9714 7.76118 19.3175 7.62553 18.5922 7.562C17.884 7.49998 16.9965 7.49999 15.9014 7.5H6.5061L5.96556 4.42747C5.66894 2.74144 4.21434 1.5 2.5 1.5ZM15.8547 9.5C17.0076 9.5 17.8071 9.5009 18.4177 9.55437C19.0212 9.60723 19.3229 9.70432 19.5211 9.82315C19.9536 10.0825 20.2721 10.4729 20.4316 10.9221C20.5012 11.1179 20.533 11.4061 20.4522 11.9771C20.3701 12.5572 20.1931 13.3036 19.9341 14.3892C19.7621 15.1103 19.6456 15.5958 19.5254 15.9686C19.4096 16.3278 19.3105 16.5145 19.2062 16.6489C18.9831 16.9365 18.6839 17.1677 18.3349 17.3165C18.1668 17.3881 17.946 17.4409 17.5499 17.4697C17.1416 17.4994 16.6204 17.5 15.8547 17.5H15.4487C13.7668 17.5 12.5745 17.499 11.6413 17.4113C10.7248 17.3251 10.1517 17.1617 9.68952 16.8915C9.30434 16.6664 8.95926 16.3858 8.66601 16.0605C8.31783 15.6743 8.05826 15.1683 7.81709 14.3214C7.57039 13.4551 7.36748 12.3278 7.08111 10.7274L6.86148 9.5H15.8547Z" fill="#FC0303"/>
<path d="M10.5 21.25C10.5 21.9404 9.94036 22.5 9.25 22.5C8.55964 22.5 8 21.9404 8 21.25C8 20.5596 8.55964 20 9.25 20C9.94036 20 10.5 20.5596 10.5 21.25Z" fill="#FC0303"/>
<path d="M18.25 22.5C18.9404 22.5 19.5 21.9404 19.5 21.25C19.5 20.5596 18.9404 20 18.25 20C17.5596 20 17 20.5596 17 21.25C17 21.9404 17.5596 22.5 18.25 22.5Z" fill="#FC0303"/>
</svg>
