<svg width="533" height="533" viewBox="0 0 533 533" fill="none" xmlns="http://www.w3.org/2000/svg">
<path d="M240.485 1.20409C124.885 12.4041 28.7521 98.5374 5.5521 212.004C-15.3812 314.404 23.8188 417.604 107.285 479.737C194.085 544.404 311.819 549.871 404.752 493.604C438.085 473.337 469.552 442.537 490.885 409.071C500.219 394.537 513.419 366.537 518.885 349.871C544.485 271.604 533.019 187.204 487.685 118.804C433.419 37.3374 337.952 -8.12925 240.485 1.20409ZM166.752 82.6708C141.285 108.804 131.552 127.204 131.552 149.204C131.552 166.137 137.152 178.404 154.085 198.404C172.885 220.671 212.619 275.071 211.285 276.537C210.885 276.804 207.685 272.404 204.219 266.804C199.685 259.604 188.619 247.337 168.219 226.271C128.219 185.471 119.419 171.871 119.285 151.071C119.285 133.871 126.485 119.071 144.219 100.004C153.419 90.1374 178.752 67.7374 180.619 67.7374C181.019 67.7374 174.752 74.5374 166.752 82.6708ZM185.685 104.404C168.885 121.204 161.685 134.937 161.685 150.404C161.685 162.671 165.019 170.004 177.419 184.937C204.219 217.071 226.619 251.737 229.685 265.737C231.285 273.204 227.819 267.604 221.685 252.804C218.352 244.937 213.685 235.337 211.152 231.471C208.619 227.471 196.752 214.004 184.485 201.337C166.619 182.804 161.552 176.671 157.685 168.937C146.885 147.471 153.819 129.871 182.885 104.137C187.952 99.4708 192.752 95.7374 193.419 95.7374C194.085 95.7374 190.619 99.6041 185.685 104.404ZM322.619 102.937C343.419 108.271 362.752 118.671 377.152 132.271L383.419 138.137L384.219 134.271C385.952 126.671 397.685 122.137 403.685 126.804C413.285 134.137 408.352 149.337 396.352 149.337H393.019L396.752 154.937C402.752 163.604 409.552 178.137 413.285 189.737C427.685 235.604 416.219 285.871 381.419 328.404L375.552 335.737H397.552C409.685 335.737 419.552 336.137 419.552 336.671C419.552 337.071 417.685 340.404 415.419 344.004L411.285 350.404H266.085H120.885L117.552 344.937C115.552 342.004 113.685 338.671 113.285 337.604C112.752 336.004 130.885 335.737 241.819 335.471L371.152 335.071L284.085 233.071C236.219 176.937 197.152 130.537 197.419 129.871C197.952 127.604 220.219 115.737 233.552 110.537C265.152 98.2708 294.085 95.7374 322.619 102.937ZM219.419 290.404C225.552 301.871 231.952 318.004 231.152 320.271C230.485 322.004 223.019 307.604 218.752 296.404C217.152 292.004 214.752 286.004 213.552 283.071C210.219 275.204 213.285 278.937 219.419 290.404ZM412.219 362.004C410.485 372.271 403.685 389.204 397.552 399.337C371.552 441.471 314.885 467.471 255.552 464.537C190.219 461.337 140.485 427.471 123.552 374.671C121.285 367.871 119.552 361.204 119.552 359.737C119.552 357.071 120.752 357.071 266.352 357.071H413.152L412.219 362.004Z" fill="#FC0303"/>
</svg>
