<svg width="20" height="20" viewBox="0 0 20 20" fill="none" xmlns="http://www.w3.org/2000/svg">
<path fill-rule="evenodd" clip-rule="evenodd" d="M11.667 1.6665C9.82604 1.6665 8.33366 3.15889 8.33366 4.99984V6.6665H5.00033C3.15938 6.6665 1.66699 8.15889 1.66699 9.99984V14.9998C1.66699 16.8408 3.15938 18.3332 5.00033 18.3332H8.33366C10.1746 18.3332 11.667 16.8408 11.667 14.9998V13.3332H15.0003C16.8413 13.3332 18.3337 11.8408 18.3337 9.99984V4.99984C18.3337 3.15889 16.8413 1.6665 15.0003 1.6665H11.667ZM11.667 11.6665H15.0003C15.9208 11.6665 16.667 10.9203 16.667 9.99984V4.99984C16.667 4.07936 15.9208 3.33317 15.0003 3.33317H11.667C10.7465 3.33317 10.0003 4.07936 10.0003 4.99984V7.11244C10.9967 7.68879 11.667 8.76603 11.667 9.99984V11.6665ZM3.33366 9.99984C3.33366 9.07936 4.07985 8.33317 5.00033 8.33317H8.33366C9.25413 8.33317 10.0003 9.07936 10.0003 9.99984V14.9998C10.0003 15.9203 9.25413 16.6665 8.33366 16.6665H5.00033C4.07985 16.6665 3.33366 15.9203 3.33366 14.9998V9.99984Z" fill="#FC0303"/>
</svg>
