<svg width="20" height="20" viewBox="0 0 20 20" fill="none" xmlns="http://www.w3.org/2000/svg">
<path fill-rule="evenodd" clip-rule="evenodd" d="M15.8332 17.5C17.6742 17.5 19.1666 16.0076 19.1666 14.1667V6.68557C19.1669 6.67283 19.1669 6.66005 19.1666 6.64725V5.83333C19.1666 3.99238 17.6742 2.5 15.8332 2.5H4.16656C2.32561 2.5 0.833229 3.99238 0.833229 5.83333V6.64726C0.832933 6.66005 0.832935 6.67282 0.833229 6.68556V14.1667C0.833229 16.0076 2.32561 17.5 4.16656 17.5H15.8332ZM2.4999 14.1667C2.4999 15.0871 3.24609 15.8333 4.16656 15.8333H15.8332C16.7537 15.8333 17.4999 15.0871 17.4999 14.1667V7.89753L11.2379 10.4023C10.4432 10.7202 9.55663 10.7202 8.76193 10.4023L2.4999 7.89753V14.1667ZM10.6189 8.85488L17.4999 6.10247V5.83333C17.4999 4.91286 16.7537 4.16667 15.8332 4.16667H4.16656C3.24609 4.16667 2.4999 4.91286 2.4999 5.83333V6.10247L9.38091 8.85488C9.77826 9.01382 10.2215 9.01382 10.6189 8.85488Z" fill="#667185"/>
</svg>
