<svg width="40" height="40" viewBox="0 0 40 40" fill="none" xmlns="http://www.w3.org/2000/svg">
<path d="M31.7883 22.5791C32.1938 22.5791 32.5255 22.9109 32.5255 23.3163V38.0542C32.5255 38.4597 32.1938 38.7914 31.7883 38.7914H8.21183C7.80636 38.7914 7.47461 38.4597 7.47461 38.0542V23.3163C7.47461 22.9109 7.80636 22.5791 8.21183 22.5791H31.7883Z" fill="#967ADC"/>
<path d="M33.2626 18.1636C33.6681 18.1636 33.9998 18.4953 33.9998 18.9008V22.5795C33.9998 22.985 33.6681 23.3168 33.2626 23.3168H10.4727C10.0673 23.3168 9.40377 23.3168 8.99829 23.3168H6.73722C6.33175 23.3168 6 22.985 6 22.5795V18.9008C6 18.4953 6.33175 18.1636 6.73722 18.1636H18.3198H19.7942H33.2626Z" fill="#AC92EC"/>
<path d="M17.0508 23.3174H22.9486V38.7917H17.0508V23.3174Z" fill="#CCD1D9"/>
<path d="M22.9486 23.3094V23.3168H17.0508V18.1636H22.9486V23.3094Z" fill="#E6E9ED"/>
<path d="M19.9997 15.2148C21.6289 15.2148 22.9486 16.5345 22.9486 18.1637H17.0508C17.0508 16.5345 18.3704 15.2148 19.9997 15.2148Z" fill="#E6E9ED"/>
<path d="M28.846 12.2664C30.4753 12.2664 31.7949 13.586 31.7949 15.2153C31.7949 16.8453 30.4753 18.1642 28.846 18.1642H22.9482C22.9482 14.9056 25.5875 12.2664 28.846 12.2664Z" fill="#CCD1D9"/>
<path d="M11.153 12.2664C14.4115 12.2664 17.0508 14.9056 17.0508 18.1642H11.153C9.52373 18.1642 8.2041 16.8453 8.2041 15.2153C8.2041 13.586 9.52373 12.2664 11.153 12.2664Z" fill="#CCD1D9"/>
<path d="M22.2041 8.65674V11.6056H17.7881V8.65674H19.9998H22.2041Z" fill="#CCD1D9"/>
<path d="M23.6784 11.6052V15.2913H16.3135V11.6052H17.7879H22.2039H23.6784Z" fill="#E6E9ED"/>
<path d="M23.6788 15.2915V11.6054H22.2043V8.65651H20H17.7883V11.6054H16.3139V15.2915H23.6788ZM28.8467 10.8682C28.8467 15.1957 25.7356 18.7933 21.6219 19.5601L19.9926 21.1893L18.3634 19.5601C14.257 18.7933 11.1533 15.1957 11.1533 10.8682C11.1533 5.98775 15.1122 2.02148 20 2.02148C24.8804 2.02148 28.8467 5.98775 28.8467 10.8682Z" fill="#EC87C0"/>
<path d="M19.997 9.39397C19.5893 9.39397 19.2598 9.06443 19.2598 8.65674V7.18229C19.2598 6.77461 19.5893 6.44507 19.997 6.44507C20.4047 6.44507 20.7342 6.77461 20.7342 7.18229V8.65674C20.7342 9.06443 20.4047 9.39397 19.997 9.39397Z" fill="#656D78"/>
<path d="M19.997 6.44556C19.5893 6.44556 19.2598 6.11602 19.2598 5.70834V4.97111C19.2598 4.56343 19.5893 4.23389 19.997 4.23389C20.4047 4.23389 20.7342 4.56343 20.7342 4.97111V5.70834C20.7342 6.11602 20.4047 6.44556 19.997 6.44556Z" fill="#FFCE54"/>
<path d="M19.9955 21.9267C19.8068 21.9267 19.6181 21.8545 19.4743 21.7107L18.0021 20.2392C13.5913 19.3051 10.4131 15.4015 10.4131 10.8698C10.4131 5.58538 14.7126 1.28589 19.997 1.28589C25.2814 1.28589 29.5809 5.58538 29.5809 10.8698C29.5809 15.4037 26.4013 19.3074 21.9875 20.2399L20.5168 21.7107C20.373 21.8545 20.1843 21.9267 19.9955 21.9267ZM19.997 2.76034C15.5257 2.76034 11.8875 6.39854 11.8875 10.8698C11.8875 14.7697 14.6683 18.1197 18.5012 18.8348C18.6471 18.8621 18.7821 18.9336 18.8867 19.0383L19.9955 20.147L21.1036 19.039C21.209 18.9336 21.3432 18.8628 21.4899 18.8355C25.3235 18.1219 28.1065 14.7719 28.1065 10.8698C28.1065 6.39854 24.469 2.76034 19.997 2.76034Z" fill="#EC87C0"/>
<path d="M22.2065 12.3423H17.7861C17.3784 12.3423 17.0488 12.0127 17.0488 11.6051V8.6569C17.0488 8.24922 17.3784 7.91968 17.7861 7.91968H22.2065C22.6141 7.91968 22.9437 8.24922 22.9437 8.6569V11.6051C22.9437 12.0127 22.6141 12.3423 22.2065 12.3423ZM18.5233 10.8678H21.4692V9.39413H18.5233V10.8678Z" fill="#CCD1D9"/>
<path d="M23.6807 16.0287H16.3114C15.9038 16.0287 15.5742 15.6992 15.5742 15.2915V11.6054C15.5742 11.1977 15.9038 10.8682 16.3114 10.8682H23.6807C24.0884 10.8682 24.418 11.1977 24.418 11.6054V15.2915C24.418 15.6992 24.0884 16.0287 23.6807 16.0287ZM17.0487 14.5543H22.9435V12.3426H17.0487V14.5543Z" fill="#E6E9ED"/>
<path d="M24.4179 16.0291H15.5741C15.1665 16.0291 14.8369 15.6996 14.8369 15.2919C14.8369 14.8842 15.1665 14.5547 15.5741 14.5547H24.4179C24.8256 14.5547 25.1551 14.8842 25.1551 15.2919C25.1551 15.6996 24.8256 16.0291 24.4179 16.0291Z" fill="#656D78"/>
</svg>
