<svg width="40" height="40" viewBox="0 0 40 40" fill="none" xmlns="http://www.w3.org/2000/svg">
<g clip-path="url(#clip0_12343_13592)">
<path d="M8.6317 8.42789C8.68936 8.09969 8.47014 7.78672 8.14186 7.72883C7.81342 7.6707 7.5003 7.89024 7.44241 8.2186C7.42545 8.31453 7.14014 9.97695 7.30787 11.7768L5.38936 6.20219C5.28084 5.88688 4.93717 5.71914 4.62194 5.82774C4.30662 5.93625 4.13897 6.27985 4.24748 6.59516L5.95217 11.5484C5.91537 11.482 5.87803 11.4153 5.83975 11.3482C4.73889 9.41727 3.61483 8.22125 2.49881 7.79344C2.18764 7.67399 1.83834 7.82977 1.71889 8.14109C1.59951 8.45242 1.75514 8.80164 2.06655 8.92102C3.4017 9.43289 4.71522 11.6652 5.48131 13.2676L5.9292 14.4071L8.85342 13.4413L8.57592 12.2026C8.29764 10.3858 8.62756 8.4518 8.6317 8.42789Z" fill="#77D057"/>
<path d="M32.17 11.3464H25.9118L23.7866 15.421C23.7119 15.5643 23.6729 15.7235 23.6729 15.885V26.4804C23.6729 27.0346 24.1221 27.4837 24.6761 27.4837H33.4056C33.9597 27.4837 34.4089 27.0345 34.4089 26.4804V15.885C34.4089 15.7235 34.3699 15.5643 34.2951 15.421L32.17 11.3464Z" fill="#E9EAEB"/>
<path d="M34.2948 15.421L32.1696 11.3464H27.8252L29.9504 15.421C30.0251 15.5643 30.0642 15.7235 30.0642 15.885V26.4805C30.0642 27.0346 29.615 27.4838 29.0609 27.4838H33.4053C33.9594 27.4838 34.4086 27.0346 34.4086 26.4805V15.885C34.4086 15.7235 34.3695 15.5642 34.2948 15.421Z" fill="#C8CBCE"/>
<path d="M33.2213 12.0555H24.8604C24.5244 12.0555 24.252 11.7831 24.252 11.4471V10.5547C24.252 10.2187 24.5244 9.94629 24.8604 9.94629H33.2213C33.5573 9.94629 33.8298 10.2187 33.8298 10.5547V11.4471C33.8297 11.7831 33.5573 12.0555 33.2213 12.0555Z" fill="#FD9727"/>
<path d="M33.221 9.94629H29.4688V12.0555H33.221C33.557 12.0555 33.8295 11.7831 33.8295 11.4471V10.5546C33.8294 10.2187 33.557 9.94629 33.221 9.94629Z" fill="#F9662B"/>
<path d="M31.9965 23.9459H26.0854C25.9482 23.9459 25.8369 23.8346 25.8369 23.6975V17.7863C25.8369 17.6491 25.9482 17.5378 26.0854 17.5378H31.9965C32.1337 17.5378 32.245 17.6491 32.245 17.7863V23.6975C32.245 23.8346 32.1337 23.9459 31.9965 23.9459Z" fill="#5BDCFD"/>
<path d="M31.9963 17.5378H30.0645V23.9459H31.9963C32.1335 23.9459 32.2448 23.8346 32.2448 23.6975V17.7863C32.2448 17.6491 32.1335 17.5378 31.9963 17.5378Z" fill="#48C7E5"/>
<path d="M20.9892 7.26096V0.422363H17.4883V7.26103C17.4883 8.51322 17.008 9.71775 16.1465 10.6264C15.2849 11.5352 14.8047 12.7396 14.8047 13.9918V33.8441C14.8047 34.5235 15.3555 35.0742 16.0348 35.0742H22.4426C23.122 35.0742 23.6727 34.5235 23.6727 33.8441V13.9918C23.6727 12.7396 23.1925 11.5351 22.3309 10.6264C21.4695 9.71768 20.9892 8.51314 20.9892 7.26096Z" fill="#602952"/>
<path d="M22.3312 10.6264C21.4696 9.71768 20.9894 8.51322 20.9894 7.26103V0.422363H17.4884V7.26103C17.4884 7.95814 17.3392 8.64025 17.0586 9.26502C17.282 9.76252 17.5886 10.2236 17.9705 10.6265C18.8321 11.5353 19.3123 12.7397 19.3123 13.9919V33.8442C19.3123 34.5235 18.7616 35.0743 18.0822 35.0743H22.4428C23.1222 35.0743 23.673 34.5235 23.673 33.8442V13.9918C23.6729 12.7396 23.1927 11.5351 22.3312 10.6264Z" fill="#4C1C40"/>
<path d="M21.261 6.06258V0.207344C21.261 0.0928125 21.1682 0 21.0536 0H17.4232C17.3086 0 17.2158 0.0928125 17.2158 0.207344V6.06258C17.2158 6.17711 17.3086 6.26992 17.4232 6.26992H21.0536C21.1682 6.26984 21.261 6.17703 21.261 6.06258Z" fill="#FDC74F"/>
<path d="M23.6729 26.0573H18.4762C18.1377 26.0573 17.8633 25.7829 17.8633 25.4444V16.7213C17.8633 16.3828 18.1377 16.1084 18.4762 16.1084H23.6729V26.0573Z" fill="#E8B19C"/>
<path d="M23.6721 16.1084H19.3115V26.0576H23.6721V16.1084Z" fill="#D09C84"/>
<path d="M16.2929 34.7327L12.8936 14.864C12.5964 13.1268 10.813 12.07 9.14651 12.6435L5.25041 13.9844C3.58393 14.5579 2.82862 16.4884 3.66346 18.0405L13.2119 35.7931C14.0979 37.4405 16.6084 36.5765 16.2929 34.7327Z" fill="#FD9727"/>
<path d="M16.2927 34.7327L12.8934 14.864C12.5962 13.1268 10.8127 12.07 9.14625 12.6435L7.70117 13.1408L13.2116 35.7931C14.0977 37.4405 16.6081 36.5765 16.2927 34.7327Z" fill="#F9662B"/>
<path d="M31.2532 40.0003H8.74648C7.67883 40.0003 6.75461 39.2581 6.52414 38.2156L3.18164 23.0981H36.818L33.4756 38.2156C33.2451 39.2581 32.3209 40.0003 31.2532 40.0003Z" fill="#FDC74F"/>
<path d="M32.471 23.0981L29.1286 38.2156C28.8981 39.2581 27.9739 40.0003 26.9062 40.0003H31.2535C32.3213 40.0003 33.2454 39.2581 33.4759 38.2156L36.8183 23.0981H32.471Z" fill="#FCA629"/>
<path d="M38.1246 25.6017H1.87551C1.49715 25.6017 1.19043 25.295 1.19043 24.9166V23.2144C1.19043 22.836 1.49715 22.5293 1.87551 22.5293H38.1245C38.5029 22.5293 38.8096 22.836 38.8096 23.2144V24.9166C38.8096 25.295 38.5029 25.6017 38.1246 25.6017Z" fill="#FC502A"/>
<path d="M38.1248 22.5293H34.4492V25.6018H38.1248C38.5031 25.6018 38.8098 25.2951 38.8098 24.9167V23.2145C38.8098 22.836 38.5031 22.5293 38.1248 22.5293Z" fill="#E60D28"/>
<path d="M16.6958 36.3123C16.7181 36.6306 16.9832 36.8738 17.2974 36.8738C17.3116 36.8738 17.3259 36.8733 17.3403 36.8723C17.673 36.8489 17.9237 36.5604 17.9003 36.2277L17.3848 28.8868C17.3615 28.5541 17.0727 28.3029 16.7402 28.3268C16.4076 28.3501 16.1569 28.6387 16.1802 28.9714L16.6958 36.3123Z" fill="white"/>
<path d="M12.0365 36.9854C11.9946 36.9943 11.9527 36.9985 11.9115 36.9985C11.632 36.9985 11.3811 36.8034 11.3212 36.5191L9.77481 29.1781C9.70606 28.8519 9.91489 28.5316 10.2411 28.4629C10.5675 28.3938 10.8876 28.603 10.9564 28.9292L12.5028 36.2702C12.5716 36.5964 12.3628 36.9166 12.0365 36.9854Z" fill="white"/>
<path d="M23.9062 36.3123C23.8839 36.6306 23.6188 36.8738 23.3046 36.8738C23.2904 36.8738 23.2761 36.8733 23.2617 36.8723C22.929 36.8489 22.6783 36.5604 22.7017 36.2277L23.2172 28.8868C23.2405 28.5541 23.5293 28.3029 23.8618 28.3268C24.1944 28.3501 24.4451 28.6387 24.4218 28.9714L23.9062 36.3123Z" fill="white"/>
<path d="M28.5663 36.9854C28.6083 36.9943 28.6501 36.9985 28.6914 36.9985C28.9708 36.9985 29.2217 36.8034 29.2816 36.5191L30.828 29.1781C30.8968 28.8519 30.688 28.5316 30.3617 28.4629C30.0353 28.3938 29.7152 28.603 29.6465 28.9292L28.1001 36.2702C28.0312 36.5964 28.24 36.9166 28.5663 36.9854Z" fill="white"/>
<path d="M9.00477 18.5626C9.32008 18.4541 9.48773 18.1105 9.37922 17.7952C9.2707 17.4799 8.92719 17.3122 8.6118 17.4207L4.1543 18.9536L4.73391 20.0313L9.00477 18.5626Z" fill="#FDC74F"/>
<path d="M6.24555 22.5298L9.25281 21.5521C9.56812 21.4436 9.73578 21.1 9.62726 20.7847C9.51875 20.4694 9.17523 20.3017 8.85984 20.4102L5.54688 21.5433L6.07742 22.5298H6.24555Z" fill="#FDC74F"/>
</g>
<defs>
<clipPath id="clip0_12343_13592">
<rect width="40" height="40" fill="white"/>
</clipPath>
</defs>
</svg>
