<svg width="25" height="24" viewBox="0 0 25 24" fill="none" xmlns="http://www.w3.org/2000/svg">
<path d="M18.0361 21.8698C17.7261 21.8698 17.4161 21.7898 17.1361 21.6198L13.1261 19.2397C12.7061 19.2297 12.2861 19.1998 11.8861 19.1398C11.6161 19.0998 11.3861 18.9197 11.2861 18.6597C11.1861 18.3997 11.2361 18.1197 11.4161 17.9097C12.0761 17.1397 12.4161 16.2197 12.4161 15.2397C12.4161 12.8197 10.2861 10.8497 7.66609 10.8497C6.68609 10.8497 5.74609 11.1198 4.95609 11.6398C4.73609 11.7798 4.46609 11.7998 4.22609 11.6898C3.99609 11.5798 3.8261 11.3597 3.7961 11.0997C3.7661 10.8197 3.74609 10.5398 3.74609 10.2498C3.74609 5.28976 8.0461 1.25977 13.3261 1.25977C18.6061 1.25977 22.9061 5.28976 22.9061 10.2498C22.9061 12.9698 21.6461 15.4697 19.4261 17.1797L19.7661 19.8998C19.8461 20.5798 19.5461 21.2198 18.9761 21.5898C18.6961 21.7698 18.3661 21.8698 18.0361 21.8698ZM13.3161 17.7297C13.4561 17.7197 13.5961 17.7598 13.7161 17.8398L17.9061 20.3298C18.0161 20.3998 18.1061 20.3698 18.1661 20.3298C18.2161 20.2998 18.2961 20.2198 18.2761 20.0798L17.8861 16.9197C17.8561 16.6397 17.9761 16.3698 18.1961 16.2098C20.2361 14.7798 21.4061 12.5997 21.4061 10.2297C21.4061 6.09974 17.7861 2.73975 13.3261 2.73975C9.0361 2.73975 5.51609 5.85979 5.25609 9.77979C6.00609 9.48979 6.8161 9.32977 7.6561 9.32977C11.1061 9.32977 13.9061 11.9697 13.9061 15.2197C13.9161 16.0997 13.7061 16.9497 13.3161 17.7297Z" fill="#FC0303"/>
<path d="M4.74579 22.7498C4.48579 22.7498 4.23578 22.6798 4.00578 22.5298C3.55578 22.2398 3.31579 21.7398 3.37579 21.2098L3.57579 19.6698C2.22579 18.5698 1.42578 16.9398 1.42578 15.2298C1.42578 13.2798 2.44579 11.4598 4.15579 10.3698C5.18579 9.69981 6.40578 9.33984 7.67578 9.33984C11.1258 9.33984 13.9258 11.9798 13.9258 15.2298C13.9258 16.5498 13.4458 17.8498 12.5658 18.8798C11.4358 20.2498 9.74579 21.0498 7.88579 21.1098L5.44579 22.5598C5.22579 22.6898 4.98579 22.7498 4.74579 22.7498ZM7.66579 10.8398C6.68579 10.8398 5.74578 11.1098 4.95578 11.6298C3.67578 12.4498 2.91579 13.7898 2.91579 15.2298C2.91579 16.6198 3.59579 17.8898 4.79579 18.7098C5.02579 18.8698 5.14578 19.1398 5.11578 19.4198L4.89578 21.1298L7.28578 19.7098C7.40578 19.6398 7.53579 19.5998 7.66579 19.5998C9.13579 19.5998 10.5258 18.9698 11.4058 17.8998C12.0658 17.1198 12.4158 16.1998 12.4158 15.2198C12.4158 12.8098 10.2858 10.8398 7.66579 10.8398Z" fill="#FC0303"/>
</svg>
