<svg width="20" height="20" viewBox="0 0 20 20" fill="none" xmlns="http://www.w3.org/2000/svg">
<path d="M10.8337 12.5002C10.8337 12.0399 10.4606 11.6668 10.0003 11.6668C9.54009 11.6668 9.16699 12.0399 9.16699 12.5002V14.1668C9.16699 14.6271 9.54009 15.0002 10.0003 15.0002C10.4606 15.0002 10.8337 14.6271 10.8337 14.1668V12.5002Z" fill="#667185"/>
<path fill-rule="evenodd" clip-rule="evenodd" d="M15.0003 5.8335C15.0003 3.07207 12.7617 0.833496 10.0003 0.833496C7.2389 0.833496 5.00033 3.07207 5.00033 5.8335V7.50016C3.15938 7.50016 1.66699 8.99255 1.66699 10.8335V15.8335C1.66699 17.6744 3.15938 19.1668 5.00033 19.1668H15.0003C16.8413 19.1668 18.3337 17.6744 18.3337 15.8335V10.8335C18.3337 8.99255 16.8413 7.50016 15.0003 7.50016V5.8335ZM6.66699 5.8335C6.66699 3.99255 8.15938 2.50016 10.0003 2.50016C11.8413 2.50016 13.3337 3.99255 13.3337 5.8335V7.50016H6.66699V5.8335ZM3.33366 10.8335C3.33366 9.91302 4.07985 9.16683 5.00033 9.16683H15.0003C15.9208 9.16683 16.667 9.91302 16.667 10.8335V15.8335C16.667 16.754 15.9208 17.5002 15.0003 17.5002H5.00033C4.07985 17.5002 3.33366 16.754 3.33366 15.8335V10.8335Z" fill="#667185"/>
</svg>
