<svg width="40" height="40" viewBox="0 0 40 40" fill="none" xmlns="http://www.w3.org/2000/svg">
<path fill-rule="evenodd" clip-rule="evenodd" d="M18.8066 11.222C18.8066 15.3579 21.3248 18.9052 24.9114 20.4155C27.1951 21.3771 26.3711 22.9905 26.4043 24.6289C26.4747 28.1045 29.1822 30.802 32.5774 30.802C35.9727 30.802 38.7505 28.0241 38.7505 24.6289C38.7505 20.1614 38.7505 15.6801 38.7505 11.222C38.7505 5.71461 34.2859 1.25 28.7786 1.25C23.2712 1.25 18.8066 5.71461 18.8066 11.222Z" fill="#F76C82"/>
<path fill-rule="evenodd" clip-rule="evenodd" d="M21.8447 11.222C21.8447 7.39186 24.948 4.28857 28.7782 4.28857C32.6083 4.28857 35.7115 7.39186 35.7115 11.222V24.629C35.7115 26.347 34.295 27.7636 32.5769 27.7636C30.7811 27.7636 29.4774 26.3313 29.4417 24.5675C29.4232 23.6583 29.6343 22.9175 29.52 21.9219C29.2818 19.8461 27.9847 18.4129 26.0902 17.6151C23.5211 16.5333 21.8447 14.0176 21.8447 11.222Z" fill="#EB5463"/>
<path d="M28.5699 13.2136C29.7729 13.2136 30.7482 12.2384 30.7482 11.0353C30.7482 9.83231 29.7729 8.85706 28.5699 8.85706C27.3669 8.85706 26.3916 9.83231 26.3916 11.0353C26.3916 12.2384 27.3669 13.2136 28.5699 13.2136Z" fill="#E4E8EB"/>
<path fill-rule="evenodd" clip-rule="evenodd" d="M11.3461 17.3372C8.78609 17.3372 6.99414 15.4498 6.99414 12.2767C6.99414 9.10367 9.39508 5.84656 11.3461 5.84656C13.2971 5.84656 15.698 9.10367 15.698 12.2767C15.698 15.4498 13.9061 17.3372 11.3461 17.3372Z" fill="#D5A889"/>
<path fill-rule="evenodd" clip-rule="evenodd" d="M5.60195 17.3372C3.04188 17.3372 1.25 15.4498 1.25 12.2768C1.25 9.10379 3.65094 5.84668 5.60195 5.84668C7.55289 5.84668 9.95383 9.10379 9.95383 12.2768C9.95383 15.4498 8.16195 17.3372 5.60195 17.3372Z" fill="#E1B695"/>
<path fill-rule="evenodd" clip-rule="evenodd" d="M4.08594 18.4011C4.08594 15.8411 5.97336 14.0492 9.14641 14.0492C12.3195 14.0492 15.5766 16.4501 15.5766 18.4011C15.5766 20.3521 12.3195 22.753 9.14641 22.753C5.97344 22.753 4.08594 20.9611 4.08594 18.4011Z" fill="#EFC7A4"/>
<path fill-rule="evenodd" clip-rule="evenodd" d="M7.67188 30.6275L20.4565 27.5182C20.3771 25.6217 18.6354 23.8366 17.4614 24.0128C12.7406 24.4332 7.90945 27.7195 7.67188 30.6275Z" fill="#E4E8EB"/>
<path fill-rule="evenodd" clip-rule="evenodd" d="M7.66331 30.6325C10.3617 29.0256 13.0266 27.3606 17.0423 27.1318C19.8053 26.9743 23.1892 28.1677 26.1384 30.1127C26.2408 30.1802 26.301 30.2807 26.3123 30.4029C26.3235 30.5251 26.2827 30.6349 26.1943 30.7201L24.0535 32.7832C23.8986 32.9325 23.894 33.1806 24.0433 33.3355L26.094 35.4634C26.1795 35.552 26.2162 35.6638 26.2 35.7858C26.1838 35.9078 26.1192 36.0061 26.0136 36.0695C22.9845 37.886 19.5484 38.9338 16.8278 38.7234C12.872 38.4173 10.3911 36.6837 7.57511 34.8317L4.60815 36.396C3.06136 37.2117 1.21808 36.0763 1.25042 34.3281L1.31386 30.8963C1.34612 29.1479 3.23011 28.0815 4.74573 28.9537L7.66331 30.6325Z" fill="#CAD0D7"/>
<path fill-rule="evenodd" clip-rule="evenodd" d="M1.34386 35.0313C1.27909 34.8118 1.24581 34.576 1.25042 34.3279L1.25761 33.9376H3.28823C3.59027 33.9376 3.83511 34.1824 3.83511 34.4845C3.83511 34.7865 3.59027 35.0313 3.28823 35.0313H1.34386ZM1.27198 33.1589L1.29222 32.0652H5.32847C5.6305 32.0652 5.87534 32.31 5.87534 32.612C5.87534 32.9141 5.6305 33.1589 5.32847 33.1589H1.27198ZM1.30659 31.2865L1.31378 30.8962C1.31839 30.6466 1.36089 30.411 1.43448 30.1927H3.28823C3.59027 30.1927 3.83511 30.4376 3.83511 30.7396C3.83511 31.0417 3.59027 31.2865 3.28823 31.2865H1.30659Z" fill="#E4E8EB"/>
<path fill-rule="evenodd" clip-rule="evenodd" d="M21.1771 29.9168C20.6512 29.9448 20.2477 30.3939 20.2758 30.9198C20.3038 31.4456 20.753 31.8491 21.2788 31.821C21.8046 31.7929 22.2081 31.3439 22.18 30.818C22.152 30.2923 21.7028 29.8887 21.1771 29.9168Z" fill="#E4E8EB"/>
<path fill-rule="evenodd" clip-rule="evenodd" d="M12.8414 32.974C12.4299 33.2418 12.2093 33.6758 12.2355 34.1661L12.3064 35.4946C12.3326 35.9849 12.5981 36.3929 13.0359 36.6154C13.4736 36.8379 13.9196 36.7366 14.3712 36.544L17.0881 35.4508C16.8499 34.9041 16.7005 34.2886 16.6664 33.6196L14.1767 32.9028C13.7053 32.7656 13.253 32.7062 12.8414 32.974Z" fill="#E4E8EB"/>
<path fill-rule="evenodd" clip-rule="evenodd" d="M16.7254 33.9731C17.0251 33.9401 17.164 34.1913 17.197 34.491C17.2301 34.7906 17.1447 35.0253 16.8451 35.0583L15.221 35.2426C14.9214 35.2756 14.6516 35.0595 14.6186 34.7598C14.5855 34.4602 14.8017 34.1904 15.1014 34.1574L16.7254 33.9731Z" fill="#CAD0D7"/>
<path fill-rule="evenodd" clip-rule="evenodd" d="M21.5288 38.0891C20.8343 38.3028 20.146 38.468 19.4758 38.5799C18.6936 38.1987 17.9853 37.6599 17.4227 36.9834C16.6174 36.0153 16.1113 34.7727 16.1113 33.3148C16.1113 32.6827 16.2078 32.0083 16.4181 31.2967C16.503 31.0077 16.8063 30.8422 17.0953 30.9272C17.3844 31.0121 17.5498 31.3153 17.4648 31.6044C17.2867 32.207 17.205 32.7785 17.205 33.3148C17.205 34.5022 17.6121 35.5082 18.2599 36.287C18.9151 37.0746 19.8175 37.6372 20.7976 37.9269C21.0371 37.9978 21.2816 38.052 21.5288 38.0891Z" fill="#A9B0BB"/>
</svg>
