<svg width="32" height="32" viewBox="0 0 32 32" fill="none" xmlns="http://www.w3.org/2000/svg">
<g clip-path="url(#clip0_12343_17574)">
<path d="M3.86211 29.5189H28.1371C29.5621 29.5189 30.7121 28.3689 30.7121 26.9439V8.91895H1.28711V26.9502C1.28711 28.3689 2.44336 29.5189 3.86211 29.5189Z" fill="#FACB7F"/>
<path d="M6.43711 26.9439V8.91895H1.28711V26.9502C1.28711 28.3752 2.43711 29.5252 3.86211 29.5252H9.01211C7.59336 29.5189 6.43711 28.3689 6.43711 26.9439Z" fill="#F9C36D"/>
<path d="M30.7125 2.48135H19.8625L16 4.30635L12.1375 2.4751H1.2875C0.575 2.48135 0 3.05635 0 3.76885V8.91885C0 9.63135 0.575 10.2063 1.2875 10.2063H30.7125C31.425 10.2063 32 9.63135 32 8.91885V3.76885C32 3.05635 31.425 2.48135 30.7125 2.48135Z" fill="#FBD599"/>
<path d="M5.15 8.91895V3.76895C5.15 3.05645 5.725 2.48145 6.4375 2.48145H1.2875C0.575 2.48145 0 3.05645 0 3.76895V8.91895C0 9.63145 0.575 10.2064 1.2875 10.2064H6.4375C5.725 10.2064 5.15 9.63145 5.15 8.91895Z" fill="#FACB7F"/>
<path d="M13.1377 13.5939L13.7127 13.2127C13.9314 13.0689 14.2127 13.0689 14.4252 13.2127L15.4627 13.9064C15.7877 14.1252 16.2127 14.1252 16.5314 13.9064L17.5689 13.2127C17.7877 13.0689 18.0689 13.0689 18.2814 13.2127L18.8564 13.5939C19.2814 13.8814 19.8564 13.5752 19.8564 13.0564V2.48145H12.1377V13.0627C12.1377 13.5752 12.7127 13.8814 13.1377 13.5939Z" fill="#FCEFD8"/>
<path d="M17.0002 13.5939C16.5752 13.8814 16.0002 13.5752 16.0002 13.0564V2.48145H12.1377V13.0627C12.1377 13.5752 12.7127 13.8814 13.1377 13.6002L13.7127 13.2189C13.9314 13.0752 14.2127 13.0752 14.4252 13.2189L15.4627 13.9127C15.7877 14.1314 16.2127 14.1314 16.5314 13.9127L17.0002 13.5939Z" fill="#F8E0BE"/>
<path d="M22.9877 26.9438H26.8502C27.5627 26.9438 28.1377 26.3688 28.1377 25.6563V21.7938C28.1377 21.0813 27.5627 20.5063 26.8502 20.5063H22.9877C22.2752 20.5063 21.7002 21.0813 21.7002 21.7938V25.6563C21.7002 26.3688 22.2752 26.9438 22.9877 26.9438Z" fill="#FCEFD8"/>
<path d="M24.2752 25.6563V21.7938C24.2752 21.0813 24.8502 20.5063 25.5627 20.5063H22.9877C22.2752 20.5063 21.7002 21.0813 21.7002 21.7938V25.6563C21.7002 26.3688 22.2752 26.9438 22.9877 26.9438H25.5627C24.8502 26.9438 24.2752 26.3688 24.2752 25.6563Z" fill="#F8E0BE"/>
<path d="M21.7002 16.6439C21.7002 17.3564 22.2752 17.9314 22.9877 17.9314H26.8502C27.5627 17.9314 28.1377 17.3564 28.1377 16.6439C28.1377 15.9314 27.5627 15.3564 26.8502 15.3564H22.9877C22.2752 15.3564 21.7002 15.9314 21.7002 16.6439Z" fill="#FCEFD8"/>
<path d="M24.2752 16.6439C24.2752 15.9314 24.8502 15.3564 25.5627 15.3564H22.9877C22.2752 15.3564 21.7002 15.9314 21.7002 16.6439C21.7002 17.3564 22.2752 17.9314 22.9877 17.9314H25.5627C24.8502 17.9314 24.2752 17.3564 24.2752 16.6439Z" fill="#F8E0BE"/>
<path d="M10.7871 21.4565H4.34961C4.09336 21.4565 3.88086 21.244 3.88086 20.9878C3.88086 20.7315 4.09336 20.519 4.34961 20.519H10.7871C11.0434 20.519 11.2559 20.7315 11.2559 20.9878C11.2559 21.244 11.0434 21.4565 10.7871 21.4565Z" fill="#FCEFD8"/>
<path d="M7.5625 26.9316H4.34375C4.0875 26.9316 3.875 26.7191 3.875 26.4629C3.875 26.2066 4.0875 25.9941 4.34375 25.9941H7.5625C7.81875 25.9941 8.03125 26.2066 8.03125 26.4629C8.03125 26.7191 7.825 26.9316 7.5625 26.9316Z" fill="#FCEFD8"/>
<path d="M10.7871 24.1938H4.34961C4.09336 24.1938 3.88086 23.9813 3.88086 23.7251C3.88086 23.4688 4.09336 23.2563 4.34961 23.2563H10.7871C11.0434 23.2563 11.2559 23.4688 11.2559 23.7251C11.2559 23.9813 11.0434 24.1938 10.7871 24.1938Z" fill="#FCEFD8"/>
</g>
<defs>
<clipPath id="clip0_12343_17574">
<rect width="32" height="32" fill="white"/>
</clipPath>
</defs>
</svg>
