<svg width="20" height="20" viewBox="0 0 20 20" fill="none" xmlns="http://www.w3.org/2000/svg">
<path fill-rule="evenodd" clip-rule="evenodd" d="M9.99968 1.6665C7.69849 1.6665 5.83301 3.53198 5.83301 5.83317C5.83301 8.13436 7.69849 9.99984 9.99968 9.99984C12.3009 9.99984 14.1663 8.13436 14.1663 5.83317C14.1663 3.53198 12.3009 1.6665 9.99968 1.6665ZM7.49968 5.83317C7.49968 4.45246 8.61896 3.33317 9.99968 3.33317C11.3804 3.33317 12.4997 4.45246 12.4997 5.83317C12.4997 7.21388 11.3804 8.33317 9.99968 8.33317C8.61896 8.33317 7.49968 7.21388 7.49968 5.83317Z" fill="#667185"/>
<path fill-rule="evenodd" clip-rule="evenodd" d="M9.99967 19.1665C8.71592 19.1665 6.85786 18.875 5.46253 18.2643C4.77753 17.9645 4.08088 17.5354 3.67614 16.9143C3.46327 16.5877 3.3287 16.2029 3.33311 15.7733C3.33748 15.3477 3.47754 14.9399 3.71294 14.5605C4.8541 12.7212 7.18867 10.8332 9.99967 10.8332C12.8107 10.8332 15.1452 12.7212 16.2864 14.5605C16.5218 14.9399 16.6619 15.3477 16.6662 15.7733C16.6706 16.2029 16.5361 16.5877 16.3232 16.9143C15.9185 17.5354 15.2218 17.9645 14.5368 18.2643C13.1415 18.875 11.2834 19.1665 9.99967 19.1665ZM5.12917 15.4392C5.01944 15.616 5.00032 15.7296 4.99969 15.7905C4.99911 15.8474 5.01373 15.9142 5.07248 16.0044C5.21096 16.2169 5.54723 16.4821 6.13078 16.7375C7.27254 17.2372 8.89404 17.4998 9.99967 17.4998C11.1053 17.4998 12.7268 17.2372 13.8686 16.7375C14.4521 16.4821 14.7884 16.2169 14.9269 16.0044C14.9856 15.9142 15.0002 15.8474 14.9997 15.7905C14.999 15.7296 14.9799 15.616 14.8702 15.4392C13.9351 13.932 12.07 12.4998 9.99967 12.4998C7.92939 12.4998 6.06429 13.932 5.12917 15.4392Z" fill="#667185"/>
</svg>
