<svg width="32" height="32" viewBox="0 0 32 32" fill="none" xmlns="http://www.w3.org/2000/svg">
<path d="M15.9996 9.61087C21.6452 9.61087 26.2218 14.1875 26.2218 19.8331C26.2218 25.4787 21.6452 30.0553 15.9996 30.0553C10.354 30.0553 5.77734 25.4787 5.77734 19.8331C5.77734 14.1875 10.354 9.61087 15.9996 9.61087ZM15.9996 12.1664C11.7654 12.1664 8.3329 15.5989 8.3329 19.8331C8.3329 24.0672 11.7654 27.4997 15.9996 27.4997C20.2337 27.4997 23.6662 24.0672 23.6662 19.8331C23.6662 15.5989 20.2337 12.1664 15.9996 12.1664ZM15.9996 14.0831L17.6894 17.5071L21.4682 18.0562L18.7339 20.7215L19.3793 24.4849L15.9996 22.7081L12.6198 24.4849L13.2653 20.7215L10.531 18.0562L14.3097 17.5071L15.9996 14.0831ZM23.6662 3.22198V7.05531L21.9241 8.50886C20.5108 7.76794 18.9416 7.28384 17.2787 7.11855L17.2773 3.2207L23.6662 3.22198ZM14.7218 3.2207L14.7214 7.11845C13.0586 7.28358 11.4896 7.7675 10.0763 8.5082L8.3329 7.05531V3.22198L14.7218 3.2207Z" fill="#FCAA0A"/>
</svg>
