<svg width="12" height="14" viewBox="0 0 12 14" fill="none" xmlns="http://www.w3.org/2000/svg">
<path d="M5.75 13.7847C2.58 13.7847 0 11.2047 0 8.03467C0 4.86467 2.58 2.28467 5.75 2.28467C6.39 2.28467 7.03 2.37467 7.64 2.56467C8.04 2.68467 8.26 3.10467 8.14 3.50467C8.02 3.90467 7.6 4.12467 7.2 4.00467C6.74 3.86467 6.25 3.79466 5.75 3.79466C3.41 3.79466 1.5 5.70466 1.5 8.04466C1.5 10.3847 3.41 12.2947 5.75 12.2947C8.09 12.2947 10 10.3847 10 8.04466C10 7.19466 9.74999 6.38467 9.28999 5.68467C9.05999 5.34467 9.15 4.87467 9.5 4.64467C9.84 4.41467 10.31 4.50467 10.54 4.85467C11.17 5.80467 11.51 6.90466 11.51 8.04466C11.5 11.2147 8.92 13.7847 5.75 13.7847Z" fill="#292D32"/>
<path d="M8.13115 4.17486C7.92115 4.17486 7.71114 4.08486 7.56114 3.91486L5.89114 2.00486C5.62114 1.69486 5.65115 1.21486 5.96115 0.944857C6.27115 0.674857 6.75115 0.704857 7.02115 1.01486L8.69115 2.92486C8.96115 3.23486 8.93114 3.71486 8.62114 3.98486C8.48114 4.11486 8.31115 4.17486 8.13115 4.17486Z" fill="#292D32"/>
<path d="M6.1899 5.59476C5.9599 5.59476 5.7299 5.48477 5.5799 5.28477C5.3399 4.95477 5.4099 4.48476 5.7399 4.23476L7.67989 2.81476C8.00989 2.57476 8.47989 2.64476 8.72989 2.97476C8.96989 3.30476 8.8999 3.77476 8.5699 4.02476L6.6299 5.44476C6.4999 5.54476 6.3399 5.59476 6.1899 5.59476Z" fill="#292D32"/>
</svg>
