<svg width="20" height="21" viewBox="0 0 20 21" fill="none" xmlns="http://www.w3.org/2000/svg">
<path fill-rule="evenodd" clip-rule="evenodd" d="M9.16699 2.16675C5.02486 2.16675 1.66699 5.52461 1.66699 9.66675C1.66699 13.8089 5.02486 17.1667 9.16699 17.1667C10.9378 17.1667 12.5653 16.553 13.8484 15.5267L16.9111 18.5893C17.2365 18.9148 17.7641 18.9148 18.0896 18.5893C18.415 18.2639 18.415 17.7363 18.0896 17.4108L15.0269 14.3482C16.0533 13.0651 16.667 11.4376 16.667 9.66675C16.667 5.52461 13.3091 2.16675 9.16699 2.16675ZM3.33366 9.66675C3.33366 6.44509 5.94533 3.83341 9.16699 3.83341C12.3887 3.83341 15.0003 6.44509 15.0003 9.66675C15.0003 12.8884 12.3887 15.5001 9.16699 15.5001C5.94533 15.5001 3.33366 12.8884 3.33366 9.66675Z" fill="#667185"/>
</svg>
