<svg width="25" height="24" viewBox="0 0 25 24" fill="none" xmlns="http://www.w3.org/2000/svg">
<path d="M7.75361 18.4944L8.47834 18.917C9.68909 19.623 11.0651 20 12.501 20C16.9193 20 20.501 16.4183 20.501 12C20.501 7.58172 16.9193 4 12.501 4C8.0827 4 4.50098 7.58172 4.50098 12C4.50098 13.4363 4.87821 14.8128 5.58466 16.0238L6.00704 16.7478L5.35355 19.1494L7.75361 18.4944ZM2.50516 22L3.85712 17.0315C2.99494 15.5536 2.50098 13.8345 2.50098 12C2.50098 6.47715 6.97813 2 12.501 2C18.0238 2 22.501 6.47715 22.501 12C22.501 17.5228 18.0238 22 12.501 22C10.6671 22 8.94851 21.5064 7.47086 20.6447L2.50516 22ZM8.89232 7.30833C9.0262 7.29892 9.16053 7.29748 9.29459 7.30402C9.34875 7.30758 9.40265 7.31384 9.45659 7.32007C9.61585 7.33846 9.79098 7.43545 9.84986 7.56894C10.1482 8.24536 10.4376 8.92565 10.7182 9.60963C10.7801 9.76062 10.7428 9.95633 10.625 10.1457C10.5652 10.2428 10.4713 10.379 10.3625 10.5183C10.2494 10.663 10.006 10.9291 10.006 10.9291C10.006 10.9291 9.90738 11.0473 9.94455 11.1944C9.95903 11.25 10.0052 11.331 10.0471 11.3991C10.0703 11.4368 10.0918 11.4705 10.1058 11.4938C10.3617 11.9211 10.7057 12.3543 11.1259 12.7616C11.2463 12.8783 11.3631 12.9974 11.4887 13.108C11.957 13.5209 12.4868 13.8583 13.059 14.1082L13.0641 14.1105C13.1486 14.1469 13.192 14.1668 13.3157 14.2193C13.3781 14.2457 13.4419 14.2685 13.5074 14.2858C13.5311 14.292 13.5554 14.2955 13.5798 14.2972C13.7415 14.3069 13.835 14.2032 13.8749 14.1555C14.5984 13.279 14.6646 13.2218 14.6696 13.2222V13.2238C14.7647 13.1236 14.9142 13.0888 15.0476 13.097C15.1085 13.1007 15.1691 13.1124 15.2245 13.1377C15.7563 13.3803 16.6258 13.7587 16.6258 13.7587L17.2073 14.0201C17.3047 14.0671 17.3936 14.1778 17.3979 14.2854C17.4005 14.3523 17.4077 14.4603 17.3838 14.6579C17.3525 14.9166 17.2738 15.2281 17.1956 15.3913C17.1406 15.5058 17.0694 15.6074 16.9866 15.6934C16.8743 15.81 16.7909 15.8808 16.6559 15.9814C16.5737 16.0426 16.5311 16.0714 16.5311 16.0714C16.3922 16.159 16.3139 16.2028 16.1484 16.2909C15.891 16.428 15.6066 16.5068 15.3153 16.5218C15.1296 16.5313 14.9444 16.5447 14.7589 16.5347C14.7507 16.5342 14.1907 16.4482 14.1907 16.4482C12.7688 16.0742 11.4538 15.3736 10.3503 14.402C10.1247 14.2034 9.9155 13.9885 9.70194 13.7759C8.81288 12.8908 8.13982 11.9364 7.73169 11.0336C7.53043 10.5884 7.40299 10.1116 7.40098 9.62098C7.39729 9.01405 7.59599 8.4232 7.96569 7.94186C8.03857 7.84697 8.10774 7.74855 8.22709 7.63586C8.35348 7.51651 8.43392 7.45244 8.52057 7.40811C8.63607 7.34902 8.76293 7.31742 8.89232 7.30833Z" fill="#FC0303"/>
</svg>
